<svg xmlns="http://www.w3.org/2000/svg" width="16" height="16" viewBox="0 0 16 16"><style>.cross{fill:#fff}@media (prefers-color-scheme:light){.cross{fill:#fff}}@media (prefers-color-scheme:dark){.cross{fill:#000}}</style><circle cx="8" cy="8" r="8" style="fill:#000"/><path d="M11.688 7H4.311A.312.312 0 0 0 4 7.313v1.375c0 .172.14.312.313.312h7.375c.172 0 .312-.14.312-.313V7.313A.312.312 0 0 0 11.687 7Z" class="cross"/><path d="M8.688 4H7.312A.312.312 0 0 0 7 4.313v7.375c0 .172.14.312.313.312h1.375c.172 0 .312-.14.312-.313V4.314A.312.312 0 0 0 8.687 4Z" class="cross"/></svg>