<svg xmlns="http://www.w3.org/2000/svg" viewBox="0 0 512 512"><style>.cross{fill:#939bae}@media (prefers-color-scheme:light){.cross{fill:#939bae}}@media (prefers-color-scheme:dark){.cross{fill:#252931}}</style><circle cx="256" cy="256" r="256" style="fill:#252931"/><path d="M374 224H138c-5.523 0-10 4.477-10 10v44c0 5.523 4.477 10 10 10h236c5.523 0 10-4.477 10-10v-44c0-5.523-4.477-10-10-10Z" class="cross"/><path d="M278 128h-44c-5.523 0-10 4.477-10 10v236c0 5.523 4.477 10 10 10h44c5.523 0 10-4.477 10-10V138c0-5.523-4.477-10-10-10Z" class="cross"/></svg>